Coordinates
nRows=9
nColumns=38

# SIMM Motion File Header:
name Coordinates
datacolumns 38
datarows 9
otherdata 1
range 0.53432999999999997000 0.54232999999999998000

Units are S.I. units (second, meters, Newtons, ...)
Angles are in degrees.

endheader
time	pelvis_tilt	pelvis_list	pelvis_rotation	pelvis_tx	pelvis_ty	pelvis_tz	hip_flexion_r	hip_adduction_r	hip_rotation_r	knee_angle_r	ankle_angle_r	subtalar_angle_r	mtp_angle_r	hip_flexion_l	hip_adduction_l	hip_rotation_l	knee_angle_l	ankle_angle_l	subtalar_angle_l	mtp_angle_l	lumbar_extension	lumbar_bending	lumbar_rotation	arm_flex_r	arm_add_r	arm_rot_r	elbow_flex_r	pro_sup_r	wrist_flex_r	wrist_dev_r	arm_flex_l	arm_add_l	arm_rot_l	elbow_flex_l	pro_sup_l	wrist_flex_l	wrist_dev_l
      0.53432999999999997000	     -4.34494339969674130000	      1.67371711448502380000	     -2.82969135692344190000	      0.89972059097800761000	      1.09415739851324000000	     -0.31925373452369515000	     -4.41069855131107060000	      1.28075864779105000000	      2.40300383791091490000	    -38.74923804646243800000	     -7.22572413609172680000	     -0.00000000000002434566	      0.00000000000003934586	     25.40931396479389500000	      4.30493446427201580000	      0.41493221151061321000	    -17.15089629131680800000	     10.89631410731749700000	      0.00000000000000781519	     -0.00000000000007257376	    -11.20624833705528400000	     -1.30246364335362470000	     11.80057524598321600000	    -12.88432261337844100000	    -28.63042029326029700000	     -0.45601927367430728000	    128.89808309843596000000	    107.14102259288218000000	      0.00000000000000880607	     -0.00000000000004628429	    -38.62368162606331600000	    -17.02613362817765700000	      2.21699990609445140000	    115.48655172689773000000	     95.51651063148330000000	      0.00000000000002252241	      0.00000000000001606567
      0.53532999999999997000	     -4.32593961843371400000	      1.68341234139493840000	     -2.79806702780148650000	      0.89983061035282275000	      1.09384889472560200000	     -0.31932765131468471000	     -4.31356164365603330000	      1.26238918239311080000	      2.37695355411283770000	    -39.14172688984060500000	     -7.14825048244414240000	     -0.00000000000002448021	      0.00000000000003960576	     25.36265720424827600000	      4.33764870161378550000	      0.29549179273882920000	    -17.14402549554090500000	     10.90857485011857400000	      0.00000000000000785764	     -0.00000000000007292637	    -11.20719212106289600000	     -1.31175480877753770000	     11.72440099435227600000	    -12.95369672851088100000	    -28.60383123135804000000	     -0.43939946916666672000	    128.83817374757592000000	    107.06149686190803000000	      0.00000000000000882519	     -0.00000000000004644647	    -38.61876011077476500000	    -17.02277521838600200000	      2.19733319359224180000	    115.52492625087720000000	     95.50242446920323400000	      0.00000000000002261018	      0.00000000000001618136
      0.53632999999999997000	     -4.30601463575770360000	      1.69365150809183280000	     -2.76615189064366040000	      0.89994090969563834000	      1.09353197490946190000	     -0.31940122823580386000	     -4.21596565966959510000	      1.24344319198666800000	      2.35022516029439870000	    -39.53671647598791600000	     -7.06697590497152280000	     -0.00000000000002461432	      0.00000000000003986534	     25.31505721335917900000	      4.37100767210312300000	      0.17613738748068716000	    -17.14162175908277800000	     10.91730913539965500000	      0.00000000000000790073	     -0.00000000000007327884	    -11.20896495842413100000	     -1.32182698798914330000	     11.64705430034863700000	    -13.02311682751496700000	    -28.57656199712964500000	     -0.42273471092539472000	    128.77578689904496000000	    106.98174842061184000000	      0.00000000000000884432	     -0.00000000000004660832	    -38.61229867512074800000	    -17.02033394486752000000	      2.17795836506836870000	    115.56307615541361000000	     95.48825874531579000000	      0.00000000000002269765	      0.00000000000001629650
      0.53732999999999997000	     -4.28518913079448720000	      1.70441474980091460000	     -2.73397576177053650000	      0.90005156650499207000	      1.09320660053787640000	     -0.31947438466150707000	     -4.11794191625899590000	      1.22393441939078280000	      2.32285126001785350000	    -39.93409887520685700000	     -6.98199820251949710000	     -0.00000000000002474932	      0.00000000000004012502	     25.26650870362718100000	      4.40496689833808030000	      0.05698027833860540300	    -17.14362895122155100000	     10.92238448045300600000	      0.00000000000000794374	     -0.00000000000007363123	    -11.21152749263528000000	     -1.33266598286017260000	     11.56858182335227300000	    -13.09259805418655800000	    -28.54860522919163700000	     -0.40603077419486383000	    128.71091350492901000000	    106.90188246598228000000	      0.00000000000000886319	     -0.00000000000004677020	    -38.60431038883444200000	    -17.01881800510895100000	      2.15887285260947250000	    115.60098767032208000000	     95.47402466815495400000	      0.00000000000002278524	      0.00000000000001641149
      0.53832999999999998000	     -4.26348704675152310000	      1.71568288694380810000	     -2.70156990712802260000	      0.90016264553435077000	      1.09287272663744010000	     -0.31954703956246744000	     -4.01951516145097540000	      1.20387640273120660000	      2.29486806238004570000	    -40.33377055519236600000	     -6.89342188915176020000	     -0.00000000000002488305	      0.00000000000004038384	     25.21701709816929300000	      4.43948198382663590000	     -0.06187608695502110100	    -17.15000263692653300000	     10.92368753431207800000	      0.00000000000000798615	     -0.00000000000007398307	    -11.21483869402733400000	     -1.34425839669638210000	     11.48903173359441600000	    -13.16215388384717000000	    -28.51995461497572700000	     -0.38929514902972623000	    128.64354503709518000000	    106.82200722627806000000	      0.00000000000000888157	     -0.00000000000004693279	    -38.59480702479127200000	    -17.01823484987847100000	      2.14007465890562280000	    115.63864707913328000000	     95.45973654909566600000	      0.00000000000002287277	      0.00000000000001652669
      0.53932999999999998000	     -4.24093550739145630000	      1.72743774978173590000	     -2.66896690231396240000	      0.90027419861164981000	      1.09253030180703580000	     -0.31961911224684830000	     -3.92070297948523900000	      1.18328211287600650000	      2.26631524291059570000	    -40.73563258462686300000	     -6.80135816412045640000	     -0.00000000000002501696	      0.00000000000004064246	     25.16659892081036900000	      4.47450917173807740000	     -0.18033570353959269000	    -17.16071015176467500000	     10.92112568924143200000	      0.00000000000000802925	     -0.00000000000007433496	    -11.21885607871826800000	     -1.35659191574260560000	     11.40845347215267600000	    -13.23179590618068600000	    -28.49060489796940500000	     -0.37253696609447146000	    128.57367363322732000000	    106.74223357709381000000	      0.00000000000000889958	     -0.00000000000004709628	    -38.58379892214497200000	    -17.01859099306118500000	      2.12156233948294260000	    115.67604064147109000000	     95.44541157146841200000	      0.00000000000002296011	      0.00000000000001664208
      0.54032999999999998000	     -4.21756473336281970000	      1.73966255427711310000	     -2.63620043944180260000	      0.90038626266517463000	      1.09217926856694890000	     -0.31969052321814007000	     -3.82151577057816460000	      1.16216351715358490000	      2.23723569238501740000	    -41.13959112171126300000	     -6.70592507270331420000	     -0.00000000000002515172	      0.00000000000004090117	     25.11528195811888200000	      4.51000602098646920000	     -0.29830956465004305000	    -17.17573105152352800000	     10.91462868564446400000	      0.00000000000000807378	     -0.00000000000007468711	    -11.22353617275409300000	     -1.36965564172182000000	     11.32689741331969200000	    -13.30153336355020100000	    -28.46055200069702500000	     -0.35576696173144262000	    128.50129204398490000000	    106.66267466266643000000	      0.00000000000000891716	     -0.00000000000004725950	    -38.57129465635160400000	    -17.01989195905429500000	      2.10333494178112490000	    115.71315462184364000000	     95.43106954833083900000	      0.00000000000002304736	      0.00000000000001675787
      0.54132999999999998000	     -4.19340794155305300000	      1.75234227756554000000	     -2.60330511940220830000	      0.90049885803805174000	      1.09181956365941570000	     -0.31976119504301248000	     -3.72195675021552570000	      1.14053114294162740000	      2.20767525987465560000	    -41.54555781392900800000	     -6.60724770987676640000	     -0.00000000000002528575	      0.00000000000004115978	     25.06310543154283000000	      4.54593208314130240000	     -0.41571520485904506000	    -17.19505750471525100000	     10.90415022539103300000	      0.00000000000000812022	     -0.00000000000007503988	    -11.22883495752456000000	     -1.38344042182926130000	     11.24441451692850800000	    -13.37137272428693000000	    -28.42979312846356900000	     -0.33899743683607414000	    128.42639361041765000000	    106.58344551706514000000	      0.00000000000000893444	     -0.00000000000004742418	    -38.55730074050733000000	    -17.02214221461076300000	      2.08539194733682590000	    115.74997530855333000000	     95.41673268028283400000	      0.00000000000002313472	      0.00000000000001687345
      0.54232999999999998000	     -4.16850126144037780000	      1.76546400875464740000	     -2.57031628221985510000	      0.90061198718281887000	      1.09145111825700770000	     -0.31983105313597660000	     -3.62202169091611870000	      1.11839367765261870000	      2.17768255097966090000	    -41.95345016860158400000	     -6.50545830609200680000	     -0.00000000000002541787	      0.00000000000004141720	     25.01012024092441200000	      4.58224952444201690000	     -0.53247627584042956000	    -17.21869459536458500000	     10.88966950116493800000	      0.00000000000000816580	     -0.00000000000007539280	    -11.23470824173849700000	     -1.39793915581834630000	     11.16105603209935600000	    -13.44131731228656100000	    -28.39832684808115100000	     -0.32224220580281282000	    128.34897228429224000000	    106.50466268302395000000	      0.00000000000000895149	     -0.00000000000004758748	    -38.54182136582704700000	    -17.02534506357912400000	      2.06773322783036880000	    115.78648899756020000000	     95.40242531587652800000	      0.00000000000002322187	      0.00000000000001698862
